<svg xmlns="http://www.w3.org/2000/svg" version="1.1" xmlns:xlink="http://www.w3.org/1999/xlink" xmlns:svgjs="http://svgjs.dev/svgjs" width="1500" height="1500" viewBox="0 0 1500 1500"><rect width="1500" height="1500" fill="#000000"></rect><g transform="matrix(0.6666666666666666,0,0,0.6666666666666666,249.39393939393938,660.7682619244943)"><svg viewBox="0 0 396 71" data-background-color="#444444" preserveAspectRatio="xMidYMid meet" height="268" width="1500" xmlns="http://www.w3.org/2000/svg" xmlns:xlink="http://www.w3.org/1999/xlink"><g id="tight-bounds" transform="matrix(1,0,0,1,0.2400000000000091,-0.04037274238302757)"><svg viewBox="0 0 395.52 71.08074548476604" height="71.08074548476604" width="395.52"><g><svg viewBox="0 0 395.52 71.08074548476604" height="71.08074548476604" width="395.52"><g><svg viewBox="0 0 418.72609255172847 75.251220703125" height="71.08074548476604" width="395.52"><g><svg viewBox="0 0 418.72609255172847 75.251220703125" height="75.251220703125" width="418.72609255172847"><g id="textblocktransform"><svg viewBox="0 0 418.72609255172847 75.251220703125" height="75.251220703125" width="418.72609255172847" id="textblock"><g><svg viewBox="0 0 418.72609255172847 75.251220703125" height="75.251220703125" width="418.72609255172847"><g><svg><g></g><g></g></svg></g><g><svg><g><svg></svg></g><g></g></svg></g><g id="text-0"><svg viewBox="0 0 418.72609255172847 75.251220703125" height="75.251220703125" width="418.72609255172847"><g transform="matrix(1,0,0,1,0,0)"><svg width="312.02592773437505" viewBox="1.49 -36.01 192.82999999999998 46.51" height="75.251220703125" data-palette-color="#ffffff"><path d="M20.51 0L14.99 0 1.49-35.01 6.86-35.01 17.75-6.2 28.66-35.01 34.01-35.01 20.51 0ZM39.74-26L44.55-26 44.55 0 39.74 0 39.74-26ZM39.5-31.01L39.5-36.01 44.8-36.01 44.8-31.01 39.5-31.01ZM75.8-21.19L75.8 0 70.99 0 70.99-21.19 57.59-21.19 57.59 0 52.8 0 52.8-26 57.59-26 57.59-21.41Q57.64-22.36 58.03-23.21 58.42-24.05 59.06-24.67 59.71-25.29 60.57-25.65 61.42-26 62.4-26L62.4-26 70.99-26Q71.99-26 72.87-25.62 73.75-25.24 74.4-24.6 75.04-23.95 75.42-23.07 75.8-22.19 75.8-21.19L75.8-21.19ZM105.8-21.19L105.8-10.55 88.59-10.55 88.59-4.81 105.8-4.81 105.8 0 88.59 0Q87.61 0 86.74-0.38 85.86-0.76 85.21-1.4 84.56-2.05 84.18-2.93 83.81-3.81 83.81-4.81L83.81-4.81 83.81-21.19Q83.81-22.19 84.18-23.07 84.56-23.95 85.21-24.6 85.86-25.24 86.74-25.62 87.61-26 88.59-26L88.59-26 100.99-26Q101.99-26 102.87-25.62 103.75-25.24 104.4-24.6 105.05-23.95 105.42-23.07 105.8-22.19 105.8-21.19L105.8-21.19ZM100.99-21.19L88.59-21.19 88.59-15.36 100.99-15.36 100.99-21.19ZM113.81-5.81L113.81-21.19Q113.81-22.19 114.19-23.07 114.57-23.95 115.21-24.6 115.86-25.24 116.74-25.62 117.62-26 118.59-26L118.59-26 127.21-26Q128.16-26 129.02-25.65 129.87-25.29 130.52-24.67 131.17-24.05 131.57-23.21 131.97-22.36 132-21.41L132-21.41 132-26 136.81-26 136.81 5.69Q136.81 6.69 136.43 7.57 136.05 8.45 135.4 9.09 134.76 9.74 133.88 10.12 133 10.5 132 10.5L132 10.5 116.81 10.5 116.81 5.69 132 5.69 132-1 118.59-1Q117.62-1 116.74-1.38 115.86-1.76 115.21-2.4 114.57-3.05 114.19-3.93 113.81-4.81 113.81-5.81L113.81-5.81ZM118.59-5.81L132-5.81 132-21.19 118.59-21.19 118.59-5.81ZM144.81-4.81L144.81-11.35Q144.81-12.35 145.19-13.22 145.57-14.09 146.22-14.75 146.86-15.41 147.74-15.78 148.62-16.16 149.6-16.16L149.6-16.16 162-16.16 162-21.19 146.3-21.19 146.3-26 162-26Q163-26 163.88-25.62 164.76-25.24 165.4-24.6 166.05-23.95 166.43-23.07 166.81-22.19 166.81-21.19L166.81-21.19 166.81 0 162 0 162-4.39Q161.93-3.49 161.51-2.69 161.1-1.88 160.45-1.28 159.8-0.68 158.97-0.34 158.14 0 157.21 0L157.21 0 149.6 0Q148.62 0 147.74-0.38 146.86-0.76 146.22-1.4 145.57-2.05 145.19-2.93 144.81-3.81 144.81-4.81L144.81-4.81ZM149.6-11.35L149.6-4.81 162-4.81 162-11.35 149.6-11.35ZM189.51-21.19L179.6-21.19 179.6 0 174.81 0 174.81-26 179.6-26 179.6-21.41Q179.65-22.36 180.04-23.21 180.43-24.05 181.08-24.67 181.72-25.29 182.58-25.65 183.43-26 184.41-26L184.41-26 189.51-26Q190.51-26 191.38-25.62 192.25-25.24 192.9-24.6 193.56-23.95 193.94-23.07 194.32-22.19 194.32-21.19L194.32-21.19 194.32-16.8 189.51-16.8 189.51-21.19Z" opacity="1" transform="matrix(1,0,0,1,0,0)" fill="#ffffff" class="wordmark-text-0" data-fill-palette-color="primary"></path></svg></g><g><svg xmlns="http://www.w3.org/2000/svg" xmlns:xlink="http://www.w3.org/1999/xlink" version="1.1" x="329.79228515625005" y="0" viewBox="13.052999999999999 19.189 73.96100000000001 62.582" enable-background="new 0 0 100 100" xml:space="preserve" height="75.251220703125" width="88.9338073954784" class="icon-cg-0" data-fill-palette-color="accent" id="cg-0"><path d="M78.479 19.189H21.587c-4.712 0-8.534 3.819-8.534 8.534v45.515c0 4.711 3.822 8.533 8.534 8.533h56.893c4.712 0 8.534-3.822 8.534-8.533V27.723C87.014 23.009 83.191 19.189 78.479 19.189zM81.324 73.238c0 1.566-1.277 2.844-2.845 2.844H21.587c-1.567 0-2.845-1.277-2.845-2.844V33.413h62.582V73.238z" fill="#ffffff" data-fill-palette-color="accent"></path><path d="M50.033 61.859c-1.567 0-2.845-1.278-2.845-2.845l0 0c0-1.567 1.278-2.845 2.845-2.845h14.224c1.566 0 2.845 1.277 2.845 2.845l0 0c0 1.566-1.278 2.845-2.845 2.845H50.033z" fill="#ffffff" data-fill-palette-color="accent"></path><polygon points="32.821,41.946 25.567,41.946 35.526,51.902 25.57,61.859 32.824,61.859 42.78,51.902 " fill="#ffffff" data-fill-palette-color="accent"></polygon></svg></g></svg></g></svg></g></svg></g></svg></g></svg></g></svg></g><defs></defs></svg><rect width="395.52" height="71.08074548476604" fill="none" stroke="none" visibility="hidden"></rect></g></svg></g></svg>